<mxfile host="app.diagrams.net" modified="2023-05-06T18:00:34.061Z" agent="Mozilla/5.0 (Macintosh; Intel Mac OS X 10_15_7) AppleWebKit/605.1.15 (KHTML, like Gecko) Version/16.4 Safari/605.1.15" etag="39DDMA40vwu_R2HaqwLD" version="21.2.8" type="device">
  <diagram name="Page-1" id="tIEg_5_6d7BjgAaAVLSK">
    <mxGraphModel dx="1434" dy="827" grid="1" gridSize="10" guides="1" tooltips="1" connect="1" arrows="1" fold="1" page="0" pageScale="1" pageWidth="850" pageHeight="1100" math="0" shadow="0">
      <root>
        <mxCell id="0" />
        <mxCell id="1" parent="0" />
        <mxCell id="I_h5_RUsC3pWc5sF4U46-19" value="" style="group" vertex="1" connectable="0" parent="1">
          <mxGeometry x="465" y="80" width="210" height="290" as="geometry" />
        </mxCell>
        <mxCell id="I_h5_RUsC3pWc5sF4U46-4" value="" style="rounded=0;whiteSpace=wrap;html=1;fillColor=#f5f5f5;fontColor=#333333;strokeColor=#666666;" vertex="1" parent="I_h5_RUsC3pWc5sF4U46-19">
          <mxGeometry width="210" height="290" as="geometry" />
        </mxCell>
        <mxCell id="I_h5_RUsC3pWc5sF4U46-3" value="" style="edgeStyle=orthogonalEdgeStyle;rounded=0;orthogonalLoop=1;jettySize=auto;html=1;strokeWidth=4;" edge="1" parent="I_h5_RUsC3pWc5sF4U46-19" source="I_h5_RUsC3pWc5sF4U46-1" target="I_h5_RUsC3pWc5sF4U46-2">
          <mxGeometry relative="1" as="geometry" />
        </mxCell>
        <mxCell id="I_h5_RUsC3pWc5sF4U46-16" value="" style="endArrow=none;startArrow=classicThin;html=1;rounded=0;exitX=1;exitY=0.5;exitDx=0;exitDy=0;startFill=1;endFill=0;dashed=1;" edge="1" parent="I_h5_RUsC3pWc5sF4U46-19" source="I_h5_RUsC3pWc5sF4U46-6">
          <mxGeometry width="50" height="50" relative="1" as="geometry">
            <mxPoint x="-65" y="370" as="sourcePoint" />
            <mxPoint x="105" y="140" as="targetPoint" />
          </mxGeometry>
        </mxCell>
        <mxCell id="I_h5_RUsC3pWc5sF4U46-1" value="&lt;b&gt;Source: &lt;br&gt;192.168.1.1: 1234&lt;/b&gt;" style="rounded=0;whiteSpace=wrap;html=1;fillColor=#dae8fc;strokeColor=#6c8ebf;" vertex="1" parent="1">
          <mxGeometry x="510" y="90" width="120" height="60" as="geometry" />
        </mxCell>
        <mxCell id="I_h5_RUsC3pWc5sF4U46-2" value="&lt;b&gt;Destination: 192.168.1.2: 80&lt;/b&gt;" style="whiteSpace=wrap;html=1;rounded=0;fillColor=#dae8fc;strokeColor=#6c8ebf;" vertex="1" parent="1">
          <mxGeometry x="510" y="290" width="120" height="60" as="geometry" />
        </mxCell>
        <mxCell id="I_h5_RUsC3pWc5sF4U46-5" value="Scapy" style="text;html=1;align=center;verticalAlign=middle;resizable=0;points=[];autosize=1;strokeColor=none;fillColor=none;" vertex="1" parent="1">
          <mxGeometry x="540" y="50" width="60" height="30" as="geometry" />
        </mxCell>
        <mxCell id="I_h5_RUsC3pWc5sF4U46-8" value="" style="edgeStyle=orthogonalEdgeStyle;rounded=0;orthogonalLoop=1;jettySize=auto;html=1;" edge="1" parent="1" source="I_h5_RUsC3pWc5sF4U46-6" target="I_h5_RUsC3pWc5sF4U46-7">
          <mxGeometry relative="1" as="geometry" />
        </mxCell>
        <mxCell id="I_h5_RUsC3pWc5sF4U46-6" value="Packet Capture" style="rounded=0;whiteSpace=wrap;html=1;fillColor=#d5e8d4;strokeColor=#82b366;" vertex="1" parent="1">
          <mxGeometry x="210" y="190" width="120" height="60" as="geometry" />
        </mxCell>
        <mxCell id="I_h5_RUsC3pWc5sF4U46-11" value="" style="edgeStyle=orthogonalEdgeStyle;rounded=0;orthogonalLoop=1;jettySize=auto;html=1;" edge="1" parent="1" source="I_h5_RUsC3pWc5sF4U46-7" target="I_h5_RUsC3pWc5sF4U46-10">
          <mxGeometry relative="1" as="geometry" />
        </mxCell>
        <mxCell id="I_h5_RUsC3pWc5sF4U46-7" value="Packet Parser" style="rounded=0;whiteSpace=wrap;html=1;fillColor=#d5e8d4;strokeColor=#82b366;" vertex="1" parent="1">
          <mxGeometry x="210" y="360" width="120" height="60" as="geometry" />
        </mxCell>
        <mxCell id="I_h5_RUsC3pWc5sF4U46-14" value="" style="edgeStyle=orthogonalEdgeStyle;rounded=0;orthogonalLoop=1;jettySize=auto;html=1;" edge="1" parent="1" source="I_h5_RUsC3pWc5sF4U46-10" target="I_h5_RUsC3pWc5sF4U46-13">
          <mxGeometry relative="1" as="geometry" />
        </mxCell>
        <mxCell id="I_h5_RUsC3pWc5sF4U46-10" value="Elastic Search" style="rounded=0;whiteSpace=wrap;html=1;fillColor=#fff2cc;strokeColor=#d6b656;" vertex="1" parent="1">
          <mxGeometry x="210" y="570" width="120" height="60" as="geometry" />
        </mxCell>
        <mxCell id="I_h5_RUsC3pWc5sF4U46-12" value="Elasticsearch Bulk API" style="text;html=1;align=center;verticalAlign=middle;resizable=0;points=[];autosize=1;strokeColor=none;fillColor=none;rotation=90;" vertex="1" parent="1">
          <mxGeometry x="220" y="480" width="140" height="30" as="geometry" />
        </mxCell>
        <mxCell id="I_h5_RUsC3pWc5sF4U46-13" value="Kibana" style="rounded=0;whiteSpace=wrap;html=1;fillColor=#f8cecc;strokeColor=#b85450;" vertex="1" parent="1">
          <mxGeometry x="410" y="570" width="120" height="60" as="geometry" />
        </mxCell>
      </root>
    </mxGraphModel>
  </diagram>
</mxfile>
